<svg width="714" height="714" viewBox="0 0 714 714" fill="none" xmlns="http://www.w3.org/2000/svg">
<ellipse cx="361.5" cy="358" rx="325.5" ry="305" fill="white"/>
<circle cx="357" cy="357" r="316" stroke="#F34F21" stroke-width="82"/>
<circle cx="357" cy="123" r="27" fill="#F34F21"/>
<circle cx="124" cy="357" r="27" fill="#F34F21"/>
<circle cx="123" cy="357" r="27" fill="#F34F21"/>
<circle cx="591" cy="357" r="27" fill="#F34F21"/>
<circle cx="357" cy="591" r="27" fill="#F34F21"/>
<path d="M410 130.624C482.468 148.117 536.821 192.834 566.274 253.5" stroke="#8D2222" stroke-width="20"/>
<path d="M449.499 344.137L432.724 281.693C432.368 280.371 433.417 279.091 434.783 279.179L659.859 293.624C662.159 293.772 662.426 297.052 660.18 297.569L451.88 345.567C450.831 345.809 449.779 345.176 449.499 344.137Z" fill="#8D2222"/>
<path d="M329.5 202.999C358.5 188.499 386.5 189.999 400 189.999C405.6 195.199 469 380.5 470 388.5C485 438.5 483 504.365 508 501C525.846 498.598 524.5 477 543.5 489.5C564 509 535.5 543.5 488.5 550.5C456.5 551 452.5 525 427 529.5C407.5 527.5 393.5 558.5 385.5 553C381 540.5 417 512.5 433 507.5C431 488.5 394.5 379.059 393 379.5C372.6 385.5 317.5 386.667 292.5 386.5C288.5 403 253 478.5 259.5 495.5C264.803 509.369 279.667 508.667 289 506C297.333 503.5 312.5 496 312.5 506C294.5 559 225.5 552.5 196 541C146 516.5 186.5 522 198 517C208.271 512.534 222 481 227 462.999C288 263.5 312 211.75 329.5 202.999Z" fill="#F34F21"/>
<path d="M311 340.172C321.459 303.985 337.033 263.439 345.08 250L364.013 295.953L382 341.906C373.007 343.207 357.86 346.675 311 340.172Z" fill="white"/>
</svg>
